<svg width="123" height="123" viewBox="0 0 123 123" fill="none" xmlns="http://www.w3.org/2000/svg">
<path fill-rule="evenodd" clip-rule="evenodd" d="M33.0445 50.9968C30.7474 50.9968 28.8136 51.7767 27.4483 53.1419C26.105 54.4852 25.4492 56.2612 25.4492 58.0078C25.4492 59.7544 26.105 61.5304 27.4483 62.8737C28.8136 64.239 30.7474 65.0188 33.0445 65.0188L42.3949 65.0188C43.6939 65.0188 44.7295 66.0583 44.7295 67.3407V111.759C44.7295 114.056 45.5093 115.99 46.8746 117.355C48.2179 118.698 49.9939 119.354 51.7405 119.354C53.4871 119.354 55.2631 118.698 56.6064 117.355C57.9716 115.99 58.7515 114.056 58.7515 111.759C58.7515 108.221 58.7552 103.122 59.3152 98.9221C59.5982 96.7997 60 95.1068 60.5082 94.0057C60.7746 93.4286 60.9783 93.1899 61.0885 93.0969C61.1986 93.1899 61.4024 93.4286 61.6687 94.0057C62.1769 95.1068 62.5787 96.7997 62.8617 98.9221C63.4218 103.122 63.4255 108.221 63.4255 111.759C63.4255 114.056 64.2053 115.99 65.5706 117.355C66.9139 118.698 68.6899 119.354 70.4365 119.354C72.1831 119.354 73.9591 118.698 75.3024 117.355C76.6676 115.99 77.4475 114.056 77.4475 111.759V67.3558C77.4475 66.0651 78.4938 65.0188 79.7845 65.0188H89.1325C91.4295 65.0188 93.3634 64.239 94.7287 62.8737C96.072 61.5304 96.7277 59.7544 96.7277 58.0078C96.7277 56.2612 96.072 54.4852 94.7287 53.1419C93.3634 51.7767 91.4295 50.9968 89.1325 50.9968H33.0445ZM61.1801 93.0433C61.1801 93.0433 61.1678 93.0538 61.1405 93.0587C61.1661 93.0431 61.1801 93.0433 61.1801 93.0433ZM61.0364 93.0587C61.0092 93.0538 60.9968 93.0433 60.9968 93.0433C60.9968 93.0433 61.0109 93.0431 61.0364 93.0587Z" fill="#6CB5C8"/>
<path d="M61.0883 25.2898C54.6349 25.2898 49.4033 30.5213 49.4033 36.9748C49.4033 43.4282 54.6349 48.6598 61.0883 48.6598C67.5418 48.6598 72.7733 43.4282 72.7733 36.9748C72.7733 30.5213 67.5418 25.2898 61.0883 25.2898Z" fill="#6CB5C8"/>
<path d="M81.1884 29V27.296L89.6562 16.1542L90.0232 16.9144H81.6341V14.9482H91.7534V16.6523L83.3119 27.7941L82.9449 27.0338H91.8059V29H81.1884Z" fill="#6CB5C8"/>
<path d="M93.485 22V20.2307L102.277 8.6622L102.658 9.45158H93.9477V7.41008H104.455V9.17938L95.6898 20.7479L95.3087 19.9585H104.509V22H93.485Z" fill="#6CB5C8"/>
</svg>
